# xmcd
#
# Track frame offsets: 
#        182
#        18290
#        40280
#        56930
#        79982
#        101542
#        120270
#        138525
#        160810
#        180725
#        205200
#        229142
#
# Disc length: 3147 seconds
#
# Revision: 4
# Processed by: cddbd v1.5.2PL0 Copyright (c) Steve Scherf et al.
# Submitted via: ExactAudioCopy v0.95a5
#
DISCID=9f0c490c
DTITLE=Atlantic Starr - k-All In The Name Of Love
DYEAR=1987
DGENRE=R&B
TTITLE0=One Lover At A Time
TTITLE1=You Belong With Me
TTITLE2=Females
TTITLE3=Don't Take Me For Granted
TTITLE4=Always
TTITLE5=Armed And Dangerous
TTITLE6=Let The Sun In
TTITLE7=Thankful
TTITLE8=I'm In Love
TTITLE9=All In The Name Of Love
TTITLE10=My Mistake
TTITLE11=Interlude
EXTD=
EXTT0=
EXTT1=
EXTT2=
EXTT3=
EXTT4=
EXTT5=
EXTT6=
EXTT7=
EXTT8=
EXTT9=
EXTT10=
EXTT11=
PLAYORDER=
